<svg xmlns="http://www.w3.org/2000/svg" width="587" height="270" viewBox="0 0 587 270"><g fill="#fff"><path d="M68.708 209.594c0-6.996 4.76-12.897 11.327-12.897 4.188 0 7.52 2.522 9.423 5.615v-15.134h3.236v30.554c0 .904.333 1.333 1.142 1.333v2.855c-.523.095-.952.143-1.285.143-1.57 0-2.712-1.047-2.712-2.332v-2.616c-2 3.236-5.616 5.282-9.233 5.282-6.9 0-11.897-6.14-11.897-12.802zm20.75 3.807v-7.662c-1.285-3.427-5.188-6.187-8.567-6.187-5.33 0-8.85 4.95-8.85 10.043 0 5.378 4.044 9.946 9.232 9.946 3.284 0 7.663-2.76 8.186-6.14zM112.348 199.98c-4.33.143-7.805 2.52-9.138 6.52v15.42h-3.236v-24.796h3.046v5.95c1.713-3.475 4.712-6.093 7.9-6.093.57 0 1.095 0 1.428.05v2.95zM116.68 191.937v-4.76h3.235v4.76h-3.236zm0 29.983v-24.796h3.235v24.796h-3.236zM147.708 221.92h-3.236v-13.85c0-5.854-1.666-8.424-5.283-8.424-3.856 0-7.854 3-9.09 7.092v15.182h-3.237v-24.796h2.95v5.616c2-3.617 6.14-6.044 10.52-6.044 5.567 0 7.376 4.188 7.376 10.708v14.516zM172.123 221.92l-9.138-12.707-5.33 4.95v7.757h-3.237v-34.742h3.236v23.605l13.944-13.61h3.665l-10.137 10.137 10.518 14.61h-3.52zM189.587 218.684l1.475-2.19c2.76 2.286 5.616 3.428 8.9 3.428 3.95 0 6.567-1.713 6.567-4.664 0-2.76-2.476-3.52-7.473-4.712-5.76-1.428-8.33-2.427-8.33-6.33 0-4.996 4.19-7.52 9.28-7.52 3.81 0 7.045 1.38 8.948 3.38l-1.57 1.903c-1.856-1.904-4.664-2.856-7.472-2.856-3.38 0-6.092 1.38-6.092 4.616 0 2.618 1.762 3.19 6.188 4.236 6.377 1.522 9.66 2.76 9.66 6.996 0 4.52-3.806 7.424-9.66 7.424-3.853 0-7.756-1.285-10.42-3.712zM218.094 216.78v15.276h-3.236v-34.933h2.903v4.808c2-3.093 5.474-5.234 9.234-5.234 6.853 0 11.803 6.234 11.803 12.85 0 6.996-4.57 12.85-11.232 12.85-4.188 0-7.52-2.427-9.47-5.616zm17.37-7.234c0-5.33-4.044-9.994-9.232-9.994-3.236 0-7.615 2.808-8.138 6.14v7.614c1.476 3.52 4.854 6.234 8.566 6.234 5.33 0 8.805-4.95 8.805-9.994zM242.508 209.594c0-6.948 5.235-12.897 12.327-12.897s12.326 5.95 12.326 12.897c0 6.9-5.187 12.802-12.325 12.802-7.235 0-12.327-5.902-12.327-12.802zm12.28 9.946c4.95 0 9.04-4.474 9.04-9.994s-4.092-9.994-8.994-9.994c-4.95 0-8.995 4.52-8.995 10.09 0 5.52 3.997 9.898 8.947 9.898zM293.287 221.92h-3.236v-13.85c0-5.854-1.665-8.424-5.282-8.424-3.855 0-7.853 3-9.09 7.092v15.182h-3.236v-24.796h2.95v5.616c2-3.617 6.14-6.044 10.52-6.044 5.567 0 7.375 4.188 7.375 10.708v14.516zM311.8 220.73c-.762.333-2.95 1.475-5.616 1.475-2.808 0-5.235-1.57-5.235-4.76v-17.75h-3.428v-2.57h3.427v-8.377h3.235v8.376h5.71v2.57h-5.71v16.848c.143 1.81 1.428 2.665 2.998 2.665 1.81 0 3.38-.856 3.76-1.095l.857 2.618zM313.654 214.83c0-4.618 4.284-7.616 10.47-7.616 2.476 0 5.236.476 7.282 1.285v-2.238c0-4.378-2.712-7.14-6.948-7.14-2.617 0-5.282 1.048-7.995 2.952l-1.143-2.142c3.188-2.142 6.188-3.236 9.47-3.236 5.998 0 9.853 3.712 9.853 9.852v11.184c0 .904.334 1.333 1.143 1.333v2.855c-.523.048-.952.095-1.285.095-1.284 0-2.52-.76-2.616-2.284l-.096-1.95c-2.142 2.903-6.044 4.616-9.613 4.616-5.094 0-8.52-3.474-8.52-7.567zm16.944 1.617c.43-.57.81-1.285.81-1.856v-4.045c-2.143-.81-4.57-1.284-6.807-1.284-4.615 0-7.804 2-7.804 5.283 0 2.618 2.047 5.378 6.187 5.378 2.855 0 5.996-1.33 7.615-3.473zM362.53 221.92h-3.236v-13.85c0-5.854-1.665-8.424-5.282-8.424-3.855 0-7.853 3-9.09 7.092v15.182h-3.236v-24.796h2.95v5.616c2-3.617 6.14-6.044 10.518-6.044 5.568 0 7.377 4.188 7.377 10.708v14.516zM367.622 209.45c0-6.948 5.234-12.754 12.42-12.754 7.235 0 12.232 5.9 12.28 12.707 0 .476-.048 1.095-.096 1.285h-21.178c.38 5.33 4.378 9.232 9.138 9.232 3.283 0 6.472-1.81 7.614-4.474l2.808.762c-1.522 3.617-5.76 6.187-10.518 6.187-7.234 0-12.468-5.9-12.468-12.944zm21.607-1.236c-.43-5.283-4.332-8.995-9.187-8.995s-8.757 3.76-9.09 8.994h18.276zM395.558 209.594c0-6.948 5.234-12.897 12.326-12.897 7.09 0 12.326 5.95 12.326 12.897 0 6.9-5.188 12.802-12.326 12.802-7.235 0-12.326-5.902-12.326-12.802zm12.278 9.946c4.95 0 9.043-4.474 9.043-9.994s-4.095-9.994-8.996-9.994c-4.95 0-8.995 4.52-8.995 10.09 0 5.52 3.997 9.898 8.946 9.898zM425.254 211.688v-14.563h3.236v13.992c0 5.664 1.903 8.424 5.76 8.424 3.853 0 7.47-2.664 8.946-6.805v-15.61h3.236v20.607c0 .904.38 1.333 1.19 1.333v2.855c-.62.095-1 .143-1.333.143-1.477 0-2.667-1-2.667-2.332v-3.426c-2.188 3.855-6.14 6.092-10.47 6.092-5.186 0-7.9-3.665-7.9-10.708zM451.666 218.684l1.476-2.19c2.76 2.286 5.616 3.428 8.9 3.428 3.95 0 6.567-1.713 6.567-4.664 0-2.76-2.476-3.52-7.474-4.712-5.758-1.428-8.328-2.427-8.328-6.33 0-4.996 4.188-7.52 9.28-7.52 3.808 0 7.044 1.38 8.947 3.38l-1.57 1.903c-1.856-1.904-4.664-2.856-7.472-2.856-3.38 0-6.092 1.38-6.092 4.616 0 2.618 1.762 3.19 6.188 4.236 6.378 1.522 9.66 2.76 9.66 6.996 0 4.52-3.807 7.424-9.66 7.424-3.854 0-7.757-1.285-10.422-3.712zM477.08 187.178h3.236v29.126c0 1.856 1.095 2.95 2.903 2.95.713 0 1.76-.19 2.568-.522l.57 2.617c-1.188.476-3.187.855-4.473.855-2.95 0-4.807-1.808-4.807-4.807v-30.22zM490.168 229.582c.285.048.618.096.95.096.62 0 1.477-.144 1.81-.286.667-.285 1.237-1.19 3.76-7.472l-10.803-24.796h3.38l9.184 21.798 8.47-21.798h3.095l-12.897 31.982c-.952 2.332-2.428 3.475-5.33 3.475-.62 0-1.143-.047-1.618-.143v-2.855zM511.964 221.92v-4.664h2.76v4.664h-2.76z"/></g><g fill="#fff"><path d="M234.148 147.09h-36.154V72.26h40.05c10.543 0 17.074 9.696 17.074 19.075 0 7.272-3.796 14.336-10.75 17.39 8.54 2.532 13.913 9.276 13.913 19.08.002 12.542-10.962 19.288-24.132 19.288zm-21.61-62.398v18.868h19.393c4.85 0 8.856-3.583 8.856-9.484 0-5.692-3.586-9.384-8.22-9.384h-20.03zm22.348 30.36h-22.35v19.707h21.612c5.266 0 9.484-4.325 9.484-9.7 0-5.48-3.796-10.01-8.746-10.01zM264.5 130.647c0-10.542 9.695-17.812 23.502-17.812 4.95 0 9.91.844 13.49 2.422v-3.16c0-7.27-4.214-11.38-12.328-11.38-5.902 0-11.387 2.102-17.285 6.216l-4.322-8.96c7.165-4.743 14.756-7.06 22.975-7.06 15.807 0 25.083 8.113 25.083 22.765v17.18c0 2.953 1.057 4.11 3.796 4.216v12.016c-2.635.526-5.06.738-6.75.738-5.27-.106-8.01-2.635-8.746-6.534l-.314-3.06c-4.95 6.43-12.226 9.91-20.234 9.91-10.75 0-18.87-7.484-18.87-17.497zm34.672 2.53c1.48-1.158 2.32-2.635 2.32-4.005v-6.32c-3.374-1.27-7.585-2.11-11.17-2.11-7.272 0-12.44 3.684-12.44 8.744 0 4.745 4.113 8.328 9.488 8.328 4.744 0 9.38-1.792 11.802-4.636zM361.99 104.09c-8.54.104-15.808 3.37-18.76 9.59v33.412H329.11v-55.23h12.964v11.806c3.793-7.485 10.323-12.65 17.074-12.65 1.476 0 2.216.106 2.844.21v12.862zM371.37 147.09V72.26h14.546v62.08h38.154v12.753h-52.7zM431.974 84.17V70.15h14.123v14.02h-14.123zm0 62.92V91.863h14.123v55.23h-14.123zM462.224 147.09v-37.94h-7.166V98.29h7.166v-6.85c0-13.7 7.27-22.342 18.442-22.342 4.53 0 9.17 1.16 13.6 3.267l-2.85 10.647c-2.106-1.16-5.267-2.008-7.694-2.008-4.846 0-7.376 3.484-7.376 9.912v7.375h13.49v10.86h-13.49v37.942h-14.122zM531.998 144.243c-3.8 1.688-9.7 3.792-15.71 3.792-7.795 0-14.33-3.792-14.33-13.594v-31.723h-7.167V91.862h7.167V73.944h14.123v17.918h11.697v10.855H516.08V129.7c0 3.898 2.423 5.375 5.374 5.375 2.954 0 6.01-1.263 7.697-2.002l2.848 11.17z"/></g><path fill="#fff" d="M171.817 108.618c0 34.058-27.604 61.66-61.66 61.66-34.055 0-61.66-27.603-61.66-61.66 0-34.052 27.605-61.657 61.66-61.657 34.057 0 61.66 27.606 61.66 61.658z"/><path fill="#E5653D" d="M143.342 56.638l-3.63 5.164c1.108 1.653 1.174 3.882-.02 5.628-1.214 1.798-3.39 2.547-5.38 2.046l-3.444 4.898c4.542 2.224 8.797 5.22 12.567 8.99.023.025.047.048.07.07l-4.752 4.747c-.02-.023-.043-.042-.064-.07-15.74-15.735-41.337-15.76-57.104-.068l-4.748-4.748c13.73-13.672 33.856-17.12 50.815-10.345l3.805-5.41c-1.206-1.667-1.304-3.97-.083-5.764 1.25-1.845 3.512-2.59 5.544-2.006l3.45-4.912c-8.93-5.03-19.237-7.898-30.214-7.898-34.055 0-61.66 27.605-61.66 61.657 0 34.058 27.605 61.66 61.66 61.66 34.057 0 61.66-27.603 61.66-61.66 0-21.838-11.35-41.024-28.474-51.98zm-33.438 93.724c-9.65 0-17.677-2-17.677-4.475 0-2.254 5.773-3.134 14.773-3.27v-28.76l-1.562-1.762c.02-.025.142-.052.165-.074 2.555-2.558 8.03-2.576 10.615-.067l-.217 1.55v29.13c6 .194 12.662 1.09 12.662 3.254 0 2.473-9.104 4.475-18.758 4.475zM96 102.456c.023-.024.048-.046.068-.07 7.87-7.87 20.657-7.89 28.555-.07l-4.746 4.75c-5.282-5.204-13.81-5.182-19.06.068-.022.023-.044.05-.07.073L96 102.457zm33.32-4.835c-.025-.02-.045-.047-.068-.07-10.537-10.53-27.662-10.555-38.225-.064l-4.746-4.75c13.183-13.108 34.566-13.084 47.718.067.023.025.046.048.07.07l-4.748 4.748z"/></svg>